<svg xmlns="http://www.w3.org/2000/svg" id="Layer_2" data-name="Layer 2" viewBox="0 0 195.82 58.33" width="195.82" height="58.33"><metadata><rdf:RDF xmlns:rdf="http://www.w3.org/1999/02/22-rdf-syntax-ns#" xmlns:dc="http://purl.org/dc/elements/1.1/"><rdf:Description><dc:creator>RealFaviconGenerator</dc:creator><dc:source>https://realfavicongenerator.net</dc:source></rdf:Description></rdf:RDF></metadata><g id="Layer_1-2" data-name="Layer 1">
    <g>
      <g>
        <path d="M3.1,50.34h6.92v1.91H3.1v3.82h7.36v2.15H.25v-13.53h10.14v2.15H3.1v3.51Z" style="fill: #231f20;"></path>
        <path d="M22.6,44.68h7.32c2.05,0,3.34.37,4.18,1.16,1.07.99,1.42,2.15,1.42,4.5,0,3.65-.13,4.77-.62,5.72-.82,1.48-2.31,2.15-4.89,2.15h-7.41v-13.53ZM29.45,55.98c1.36,0,2.11-.24,2.56-.81.49-.63.62-1.44.62-3.75s-.11-3.12-.58-3.71c-.42-.55-1.11-.77-2.42-.77h-4.18v9.05h4Z" style="fill: #231f20;"></path>
        <path d="M59.96,44.68v9.01c0,1.66-.22,2.58-.78,3.25-.44.53-1.09.93-1.93,1.16-.58.16-1.73.24-3.45.24-2.18,0-3.18-.1-4.05-.45-1.6-.63-2.11-1.6-2.11-4.06v-9.15h2.85v9.15c0,1.97.44,2.27,3.34,2.27s3.29-.28,3.29-2.37v-9.05h2.85Z" style="fill: #231f20;"></path>
        <path d="M84.65,53.38v.47c0,2.03-.22,2.78-1.02,3.47-.47.41-1.25.75-2.07.89-.47.06-1.78.12-3.09.12-2.56,0-3.25-.1-4.23-.61-1.29-.63-1.85-1.64-2-3.57-.07-.77-.11-2.43-.11-3.67,0-2.82.29-3.86,1.29-4.73,1.11-.97,2.22-1.2,5.83-1.2,2.36,0,3.29.18,4.05.77.62.49,1,1.2,1.13,2.19.04.32.07.73.09,1.66h-2.82c-.04-2.17-.31-2.39-2.85-2.39-1.89,0-2.71.14-3.16.53-.38.34-.53.83-.58,1.87q-.02.34-.02,2.19c0,4.44.2,4.73,3.38,4.73,2.89,0,3.38-.32,3.38-2.15,0-.12,0-.3-.02-.57h2.82Z" style="fill: #231f20;"></path>
        <path d="M99.21,55.61l-.91,2.6h-2.98l4.94-13.53h4.2l5.03,13.53h-2.91l-.96-2.6h-6.4ZM102.41,46.67l-2.54,7.02h5.09l-2.56-7.02Z" style="fill: #231f20;"></path>
        <path d="M125.45,58.21h-2.85v-11.26h-4.29v-2.27h11.52v2.27h-4.38v11.26Z" style="fill: #231f20;"></path>
        <path d="M144.24,58.21h-2.85v-13.53h2.85v13.53Z" style="fill: #231f20;"></path>
        <path d="M167.1,45c1.33.55,2.09,1.52,2.38,3.1.11.61.16,1.4.16,3.21,0,3.25-.13,4.14-.76,5.15-.53.85-1.51,1.44-2.85,1.68-.6.12-1.78.18-3.22.18-2.2,0-3.31-.16-4.23-.61-1.18-.59-1.78-1.46-2.05-2.96-.11-.63-.13-1.28-.13-2.96,0-3.49.16-4.48.85-5.48.56-.79,1.53-1.36,2.76-1.58.58-.12,1.8-.18,3.14-.18,2.11,0,3.09.12,3.96.45ZM159.29,52c0,2.37.11,2.98.64,3.55.42.45,1.09.55,3.36.55s2.78-.22,3.16-1.2c.27-.67.29-1.01.29-3.55,0-2.13,0-2.19-.11-2.82-.13-.79-.49-1.3-1.05-1.52-.49-.18-1.05-.22-2.71-.22-1.8,0-2.4.1-2.87.53-.49.43-.69,1.14-.71,2.48v2.21Z" style="fill: #231f20;"></path>
        <path d="M195.56,58.21h-4.78l-4.25-7.43c-.27-.51-.56-1.05-1.45-2.92l-.49-.95h-.09l.02.87c.07,1.3.07,1.4.07,2.66v7.77h-2.8v-13.53h4.76l3.87,6.86c.56,1.01.73,1.36,1.73,3.31l.58,1.12h.09l-.02-.87c-.07-1.26-.07-1.36-.07-2.62v-7.79h2.82v13.53Z" style="fill: #231f20;"></path>
      </g>
      <g>
        <path d="M38.76,39.76V0h25.73c5.85,0,10.02,1,12.36,2.67,2.51,1.84,3.68,4.85,3.68,9.36s-.67,7.69-1.84,9.02c-1.17,1.5-4.01,2.67-8.35,3.51,6.52.5,9.86,2.84,9.86,7.35v7.85h-13.03v-5.68c0-3.17-1.84-4.85-5.68-4.85h-9.69v10.53h-13.03ZM51.79,20.05h10.02c2.34,0,3.84-.33,4.51-1,.5-.67.84-2.34.84-4.85,0-1.5-.17-2.84-.67-3.68-.5-.84-1.84-1.34-4.18-1.34h-10.53v10.86Z"></path>
        <path d="M84.04,39.76L98.74,0h19.72l14.54,39.76h-13.03l-2.51-6.68h-17.38l-2.34,6.68h-13.7ZM102.92,25.23h11.86l-6.01-17.21-5.85,17.21Z"></path>
        <polygon points="136.17 0 156.55 0 165.91 25.06 174.76 0 195.82 0 195.82 39.76 182.78 39.76 182.78 11.53 171.59 39.76 160.39 39.76 149.03 11.53 149.03 39.76 136.17 39.76 136.17 0"></polygon>
        <polygon points="12.87 31.24 12.87 24.39 27.23 24.39 27.23 15.71 12.87 15.71 12.87 8.69 35.09 8.69 35.09 0 13.37 0 0 13.37 0 39.76 35.59 39.76 35.59 31.24 12.87 31.24"></polygon>
        <path d="M0,0h11.7C7.69,4.01,3.84,7.85,0,11.86V0Z" style="fill: #db222a;"></path>
      </g>
    </g>
  </g><style>@media (prefers-color-scheme: light) { :root { filter: contrast(1) brightness(1); } }
</style></svg>